# xmcd
# 
# Track frame offsets:
#     150
#     27101
#     71227
#     85755
#     103477
# 
# Disc length: 1672
# 
# Revision: 1
# Processed by: cddbd v1.5.2PL0 Copyright (c) Steve Scherf et al.
# Submitted via: fre:ac v1.0.31
# 
DISCID=3f068605
DTITLE=Jimi Hendrix - Songs For Groovy Children Disc 5
DYEAR=2019
DGENRE=Rock/Pop
TTITLE0=Voo Doo Child (Slight Return)
TTITLE1=We Gotta Live Together
TTITLE2=Wild Thing
TTITLE3=Hey Joe
TTITLE4=Purple Haze
EXTD=
EXTT0=
EXTT1=
EXTT2=
EXTT3=
EXTT4=
PLAYORDER=
